<svg xmlns="http://www.w3.org/2000/svg" width="27" height="27" viewBox="0 0 27 27">
  <g id="Grupo_29" data-name="Grupo 29" transform="translate(-2 -2)">
    <path id="Trazado_8" data-name="Trazado 8" d="M4.7,4.7h5.414V2H2v8.1H4.7Zm0,16.2H2V29h8.114V26.3H4.7Zm21.6,5.4H20.9V29H29V20.9H26.3ZM20.9,4.7h5.4v5.4H29V2H20.9Z" transform="translate(0 0)" fill="#fff"/>
    <path id="Trazado_9" data-name="Trazado 9" d="M5,13.1h8.1V5H5ZM7.7,7.7h2.7v2.7H7.7ZM5,23.9h8.1V15.8H5Zm2.7-5.4h2.7v2.7H7.7ZM23.9,5H15.8v8.1h8.1Zm-2.7,5.4H18.5V7.7h2.7Zm-5.386,5.4h2.7v2.7h-2.7Zm2.7,2.7h2.7v2.7h-2.7Zm2.7,2.7h2.7v2.7h-2.7Zm0-5.4h2.7v2.7h-2.7Z" transform="translate(1.05 1.05)" fill="#fff"/>
  </g>
</svg>
