<svg xmlns="http://www.w3.org/2000/svg" width="303.012" height="303.012" viewBox="0 0 303.012 303.012">
  <g id="Grupo_34" data-name="Grupo 34" transform="translate(-2 -2)" opacity="0.17" style="mix-blend-mode: overlay;isolation: isolate">
    <path id="Trazado_8" data-name="Trazado 8" d="M32.3,32.3H93.055V2H2V92.9H32.3Zm0,181.807H2v90.9H93.055v-30.3H32.3Zm242.409,60.6h-60.6v30.3h90.9v-90.9h-30.3ZM214.108,32.3h60.6V92.9h30.3V2h-90.9Z" fill="#00327b"/>
    <path id="Trazado_9" data-name="Trazado 9" d="M5,95.9H95.9V5H5ZM35.3,35.3H65.6V65.6H35.3ZM5,217.108H95.9V126.2H5Zm30.3-60.6H65.6v30.3H35.3ZM217.108,5H126.2V95.9h90.9Zm-30.3,60.6h-30.3V35.3h30.3Zm-60.451,60.6h30.3v30.3h-30.3Zm30.3,30.3h30.3v30.3h-30.3Zm30.3,30.3h30.3v30.3h-30.3Zm0-60.6h30.3v30.3h-30.3Z" transform="translate(42.452 42.452)" fill="#00327b"/>
  </g>
</svg>
