<svg xmlns="http://www.w3.org/2000/svg" width="35.102" height="40.604" viewBox="0 0 35.102 40.604">
  <path id="Trazado_82" data-name="Trazado 82" d="M8.561,29.937,7.344,31.4c-7.738-4.492-9.67-13.4-4.315-19.886a18.175,18.175,0,0,1,14.007-6.16c.132,0,.254.015.387.018l-4.9-4.114L14.024,0l7.527,6.315-7.527,6.316-1.506-1.263,5.006-4.2c-.164,0-.323-.021-.488-.021-8.233,0-14.906,5.6-14.905,12.506,0,4.106,2.4,7.951,6.431,10.285M34.075,19.647c0-4.776-2.839-9.236-7.575-11.886L25.315,9.247c6.847,3.835,8.692,11.6,4.12,17.343a15.845,15.845,0,0,1-12.4,5.561c-.167,0-.329-.016-.492-.02l5.012-4.2-1.515-1.26-7.527,6.316L20.042,39.3l1.506-1.263-4.9-4.112c.13,0,.255.016.385.016,9.406-.008,17.03-6.4,17.039-14.293" transform="translate(0.527 0.653)" fill="#fff" stroke="#fff" stroke-linecap="round" stroke-width="1" fill-rule="evenodd"/>
</svg>
