<svg xmlns="http://www.w3.org/2000/svg" xmlns:xlink="http://www.w3.org/1999/xlink" width="196.64" height="119.061" viewBox="0 0 196.64 119.061">
  <defs>
    <linearGradient id="linear-gradient" y1="0.208" x2="1" y2="0.213" gradientUnits="objectBoundingBox">
      <stop offset="0" stop-color="#d1f1f1"/>
      <stop offset="0.469" stop-color="#f9e2d0"/>
      <stop offset="1" stop-color="#d1f1f1"/>
    </linearGradient>
    <filter id="Trazado_37" x="0" y="0" width="196.64" height="119.061" filterUnits="userSpaceOnUse">
      <feOffset dy="3" input="SourceAlpha"/>
      <feGaussianBlur stdDeviation="3" result="blur"/>
      <feFlood flood-opacity="0.161"/>
      <feComposite operator="in" in2="blur"/>
      <feComposite in="SourceGraphic"/>
    </filter>
  </defs>
  <g id="Grupo_97" data-name="Grupo 97" transform="translate(-97 -285)">
    <g transform="matrix(1, 0, 0, 1, 97, 285)" filter="url(#Trazado_37)">
      <g id="Trazado_37-2" data-name="Trazado 37" transform="translate(9 6)" fill="url(#linear-gradient)">
        <path d="M 173.5502166748047 100.5605392456055 L 5.089460372924805 100.5605392456055 C 3.827051401138306 100.5605392456055 2.64698338508606 100.239631652832 1.766642451286316 99.65692901611328 C 0.9498469233512878 99.11629486083984 0.5000060200691223 98.41840362548828 0.5000060200691223 97.69184112548828 L 0.5000060200691223 3.36867880821228 C 0.5000060200691223 2.642133235931396 0.9498469233512878 1.944246888160706 1.766642451286316 1.403610587120056 C 2.64698338508606 0.8209059834480286 3.827051401138306 0.4999969005584717 5.089460372924805 0.4999969005584717 L 173.5502166748047 0.4999969005584717 C 174.8125915527344 0.4999969005584717 175.9926605224609 0.8209059834480286 176.8730010986328 1.403610587120056 C 177.6898040771484 1.944246888160706 178.1396484375 2.642133235931396 178.1396484375 3.36867880821228 L 178.1396484375 97.69184112548828 C 178.1396484375 98.41840362548828 177.6898040771484 99.11629486083984 176.8730010986328 99.65692901611328 C 175.9926605224609 100.239631652832 174.8126220703125 100.5605392456055 173.5502166748047 100.5605392456055 Z" stroke="none"/>
        <path d="M 5.089431762695312 1 C 3.94097900390625 1 2.8304443359375 1.299064636230469 2.042617797851562 1.820541381835938 C 1.653228759765625 2.078269958496094 1 2.622108459472656 1 3.368675231933594 L 1 97.69184112548828 C 1 98.43843078613281 1.653228759765625 98.98226928710938 2.042617797851562 99.23999786376953 C 2.8304443359375 99.761474609375 3.940963745117188 100.0605392456055 5.089431762695312 100.0605392456055 L 173.5501861572266 100.0605392456055 C 174.6986694335938 100.0605392456055 175.8091888427734 99.761474609375 176.5970306396484 99.23999786376953 C 176.9864196777344 98.98226928710938 177.6396484375 98.43843078613281 177.6396484375 97.69184112548828 L 177.6396484375 3.368675231933594 C 177.6396484375 2.622108459472656 176.9864196777344 2.078269958496094 176.5970306396484 1.820541381835938 C 175.8091888427734 1.299064636230469 174.6986694335938 1 173.5501861572266 1 L 5.089431762695312 1 M 5.089431762695312 0 L 173.5501861572266 0 C 176.3610229492188 0 178.6396484375 1.508201599121094 178.6396484375 3.368675231933594 L 178.6396484375 97.69184112548828 C 178.6396484375 99.55233764648438 176.3610229492188 101.0605392456055 173.5501861572266 101.0605392456055 L 5.089431762695312 101.0605392456055 C 2.27862548828125 101.0605392456055 0 99.55233764648438 0 97.69184112548828 L 0 3.368675231933594 C 0 1.508201599121094 2.27862548828125 0 5.089431762695312 0 Z" stroke="none" fill="#dcdcdc"/>
      </g>
    </g>
    <path id="Trazado_38" data-name="Trazado 38" d="M17.254,2a7.919,7.919,0,1,0,7.919,7.919A7.919,7.919,0,0,0,17.254,2Zm0,12.67a4.751,4.751,0,1,1,4.751-4.751A4.751,4.751,0,0,1,17.254,14.67ZM31.508,32.092V30.508A11.086,11.086,0,0,0,20.422,19.422H14.086A11.086,11.086,0,0,0,3,30.508v1.584H6.168V30.508a7.919,7.919,0,0,1,7.919-7.919h6.335a7.919,7.919,0,0,1,7.919,7.919v1.584Z" transform="translate(108.756 312.256)" fill="#1f364d"/>
    <g id="Grupo_98" data-name="Grupo 98" transform="translate(43.722 315.408)">
      <rect id="Rectángulo_54" data-name="Rectángulo 54" width="118" height="11" transform="translate(110.599 -0.408)" fill="#1f364d"/>
      <rect id="Rectángulo_53" data-name="Rectángulo 53" width="118" height="11" transform="translate(110.599 21.592)" fill="#1f364d"/>
      <rect id="Rectángulo_55" data-name="Rectángulo 55" width="118" height="11" transform="translate(110.599 42.592)" fill="#1f364d"/>
    </g>
    <g id="Grupo_99" data-name="Grupo 99" transform="translate(163.021 309.327)">
      <g id="Elipse_5" data-name="Elipse 5" transform="translate(0.299 -0.328)" fill="#de1e01" stroke="#fff" stroke-width="1">
        <circle cx="32.5" cy="32.5" r="32.5" stroke="none"/>
        <circle cx="32.5" cy="32.5" r="32" fill="none"/>
      </g>
      <path id="Trazado_25" data-name="Trazado 25" d="M-16859.957-22207.906l33.611-30.27" transform="translate(16875.488 22255.516)" fill="none" stroke="#fff" stroke-width="6"/>
      <path id="Trazado_26" data-name="Trazado 26" d="M-16826.346-22207.906l-33.611-30.27" transform="translate(16875.488 22255.516)" fill="none" stroke="#fff" stroke-width="6"/>
    </g>
  </g>
</svg>
