<svg xmlns="http://www.w3.org/2000/svg" xmlns:xlink="http://www.w3.org/1999/xlink" width="198" height="120" viewBox="0 0 198 120">
  <defs>
    <filter id="Rectángulo_49" x="0" y="0" width="198" height="120" filterUnits="userSpaceOnUse">
      <feOffset dy="3" input="SourceAlpha"/>
      <feGaussianBlur stdDeviation="3" result="blur"/>
      <feFlood flood-opacity="0.161"/>
      <feComposite operator="in" in2="blur"/>
      <feComposite in="SourceGraphic"/>
    </filter>
  </defs>
  <g id="Grupo_70" data-name="Grupo 70" transform="translate(15835 21193.789)">
    <g transform="matrix(1, 0, 0, 1, -15835, -21193.79)" filter="url(#Rectángulo_49)">
      <g id="Rectángulo_49-2" data-name="Rectángulo 49" transform="translate(9 6)" fill="#f8f8f8" stroke="#dcdcdc" stroke-width="1">
        <rect width="180" height="102" rx="10" stroke="none"/>
        <rect x="0.5" y="0.5" width="179" height="101" rx="9.5" fill="none"/>
      </g>
    </g>
    <g id="Rectángulo_50" data-name="Rectángulo 50" transform="translate(-15826 -21187.789)" fill="#0081cf" stroke="#dcdcdc" stroke-width="1">
      <path d="M10,0H170a10,10,0,0,1,10,10V29a0,0,0,0,1,0,0H0a0,0,0,0,1,0,0V10A10,10,0,0,1,10,0Z" stroke="none"/>
      <path d="M10,.5H170a9.5,9.5,0,0,1,9.5,9.5V28.5a0,0,0,0,1,0,0H.5a0,0,0,0,1,0,0V10A9.5,9.5,0,0,1,10,.5Z" fill="none"/>
    </g>
    <g id="Grupo_70-2" data-name="Grupo 70" transform="translate(-15812.812 -21153.381)">
      <rect id="Rectángulo_51" data-name="Rectángulo 51" width="42" height="11" transform="translate(-0.188 -0.408)" fill="#dcdcdc"/>
      <rect id="Rectángulo_54" data-name="Rectángulo 54" width="43" height="11" transform="translate(110.812 -0.408)" fill="#dcdcdc"/>
      <rect id="Rectángulo_52" data-name="Rectángulo 52" width="42" height="11" transform="translate(-0.188 21.592)" fill="#dcdcdc"/>
      <rect id="Rectángulo_56" data-name="Rectángulo 56" width="42" height="11" transform="translate(-0.188 42.592)" fill="#dcdcdc"/>
      <rect id="Rectángulo_53" data-name="Rectángulo 53" width="43" height="11" transform="translate(110.812 21.592)" fill="#dcdcdc"/>
      <rect id="Rectángulo_55" data-name="Rectángulo 55" width="43" height="11" transform="translate(110.812 42.592)" fill="#dcdcdc"/>
    </g>
    <g id="Grupo_71" data-name="Grupo 71" transform="translate(-15768.3 -21176.461)">
      <g id="Elipse_5" data-name="Elipse 5" transform="translate(0.299 -0.328)" fill="#de1e01" stroke="#fff" stroke-width="1">
        <circle cx="32.5" cy="32.5" r="32.5" stroke="none"/>
        <circle cx="32.5" cy="32.5" r="32" fill="none"/>
      </g>
      <path id="Trazado_25" data-name="Trazado 25" d="M-16859.957-22207.906l33.611-30.27" transform="translate(16875.488 22255.516)" fill="none" stroke="#fff" stroke-width="6"/>
      <path id="Trazado_26" data-name="Trazado 26" d="M-16826.346-22207.906l-33.611-30.27" transform="translate(16875.488 22255.516)" fill="none" stroke="#fff" stroke-width="6"/>
    </g>
  </g>
</svg>
