<svg xmlns="http://www.w3.org/2000/svg" width="14.99" height="14.988" viewBox="0 0 14.99 14.988">
  <g id="Grupo_9" data-name="Grupo 9" transform="translate(-201.498 -119)">
    <g id="Grupo_10" data-name="Grupo 10" transform="translate(201.498 119)">
      <path id="Trazado_6" data-name="Trazado 6" d="M16.325,3H4.667A1.667,1.667,0,0,0,3,4.665V8H4.667V4.665H16.325V16.323H4.667V12.992H3v3.331a1.667,1.667,0,0,0,1.665,1.665H16.325a1.667,1.667,0,0,0,1.665-1.665V4.665A1.668,1.668,0,0,0,16.325,3Z" transform="translate(-3 -3)" fill="#fff"/>
      <path id="Trazado_7" data-name="Trazado 7" d="M9.661,14.661l4.163-3.331L9.661,8v2.5H3v1.665H9.661Z" transform="translate(-3 -3.837)" fill="#fff"/>
    </g>
  </g>
</svg>
