<svg xmlns="http://www.w3.org/2000/svg" width="40.564" height="40.564" viewBox="0 0 40.564 40.564">
  <g id="Grupo_6" data-name="Grupo 6" transform="translate(-130.848 -65)">
    <path id="Trazado_4" data-name="Trazado 4" d="M22.282,2A20.553,20.553,0,0,0,2,22.282,20.553,20.553,0,0,0,22.282,42.564,20.553,20.553,0,0,0,42.564,22.282,20.553,20.553,0,0,0,22.282,2Zm0,10.141a5.91,5.91,0,0,1,6.085,6.085,5.91,5.91,0,0,1-6.085,6.085A5.911,5.911,0,0,1,16.2,18.226,5.911,5.911,0,0,1,22.282,12.141ZM11.926,31.961A10.059,10.059,0,0,1,20.254,27.5H24.31a10.056,10.056,0,0,1,8.328,4.462,14.126,14.126,0,0,1-20.712,0Z" transform="translate(128.848 63)" fill="#fff"/>
  </g>
</svg>
